<svg width="16" height="17" viewBox="0 0 16 17" fill="none" xmlns="http://www.w3.org/2000/svg">
<path d="M7.6077 5.81438e-09C8.28238 -4.53024e-05 8.93151 0.264707 9.42192 0.739946C9.91233 1.21518 10.2068 1.86488 10.245 2.55576L10.2491 2.70914H14.516C14.6704 2.70918 14.8191 2.76936 14.9319 2.8775C15.0448 2.98563 15.1134 3.13368 15.1239 3.29171C15.1345 3.44974 15.0861 3.60598 14.9887 3.72885C14.8912 3.85173 14.7519 3.93208 14.5989 3.95367L14.516 3.95951H13.8691L12.8287 14.8127C12.7766 15.3538 12.5387 15.8583 12.1574 16.236C11.7761 16.6138 11.2764 16.8403 10.7473 16.875L10.6043 16.88H4.61112C4.08078 16.88 3.56772 16.6865 3.16363 16.3342C2.75955 15.982 2.49078 15.4938 2.40534 14.9569L2.38665 14.8119L1.34553 3.95951H0.699399C0.5521 3.9595 0.409786 3.90479 0.298774 3.80549C0.187763 3.70619 0.115566 3.56902 0.0955329 3.41935L0.0898438 3.33432C0.08985 3.18324 0.143194 3.03728 0.240011 2.92342C0.336829 2.80957 0.470569 2.73552 0.6165 2.71497L0.699399 2.70914H4.96629C4.96629 1.99063 5.24458 1.30155 5.73994 0.793487C6.2353 0.285426 6.90715 5.81438e-09 7.6077 5.81438e-09ZM12.6443 3.95951H2.57033L3.60007 14.6894C3.62287 14.9288 3.72574 15.1527 3.89121 15.3232C4.05669 15.4937 4.27458 15.6002 4.5079 15.6246L4.61112 15.6296H10.6043C11.0919 15.6296 11.5056 15.2754 11.5999 14.7944L11.6161 14.6894L12.6434 3.95951H12.6443ZM9.02999 6.25185C9.17729 6.25186 9.31961 6.30657 9.43062 6.40587C9.54163 6.50517 9.61383 6.64234 9.63386 6.79201L9.63955 6.87704V12.7121C9.6395 12.8705 9.58083 13.023 9.4754 13.1387C9.36996 13.2545 9.22562 13.3248 9.07154 13.3356C8.91746 13.3464 8.76513 13.2968 8.64532 13.1969C8.52552 13.0969 8.44718 12.954 8.42613 12.7971L8.42044 12.7121V6.87704C8.42044 6.71123 8.48466 6.55221 8.59897 6.43496C8.71329 6.31772 8.86833 6.25185 9.02999 6.25185ZM6.1854 6.25185C6.3327 6.25186 6.47501 6.30657 6.58602 6.40587C6.69704 6.50517 6.76923 6.64234 6.78927 6.79201L6.79495 6.87704V12.7121C6.79491 12.8705 6.73624 13.023 6.6308 13.1387C6.52537 13.2545 6.38103 13.3248 6.22695 13.3356C6.07287 13.3464 5.92053 13.2968 5.80073 13.1969C5.68093 13.0969 5.60258 12.954 5.58153 12.7971L5.57584 12.7121V6.87704C5.57584 6.71123 5.64006 6.55221 5.75438 6.43496C5.86869 6.31772 6.02374 6.25185 6.1854 6.25185ZM7.6077 1.25037C7.25075 1.25038 6.90685 1.38805 6.64428 1.63605C6.3817 1.88405 6.21965 2.22424 6.19028 2.5891L6.1854 2.70914H9.02999C9.02999 2.32225 8.88014 1.9512 8.61341 1.67763C8.34668 1.40406 7.98491 1.25037 7.6077 1.25037Z" fill="#783EFD"/>
</svg>
