<svg width="410" height="456" viewBox="0 0 410 456" fill="none" xmlns="http://www.w3.org/2000/svg">
<g filter="url(#filter0_d_805_3788)">
<path opacity="0.43" d="M312.292 399.458C347.531 399.458 376.098 396.447 376.098 392.731C376.098 389.016 347.531 386.004 312.292 386.004C277.054 386.004 248.487 389.016 248.487 392.731C248.487 396.447 277.054 399.458 312.292 399.458Z" fill="#C1CACD"/>
<path opacity="0.43" d="M113.791 361.899C149.03 361.899 177.596 358.887 177.596 355.172C177.596 351.456 149.03 348.445 113.791 348.445C78.5527 348.445 49.9862 351.456 49.9862 355.172C49.9862 358.887 78.5527 361.899 113.791 361.899Z" fill="#C1CACD"/>
<g style="mix-blend-mode:multiply" opacity="0.34">
<path d="M233.318 341.927C233.318 341.927 211.264 329.867 215.281 316.531C217.703 308.487 229.672 312.056 230.532 320.094C231.392 328.131 236.504 343.669 236.504 343.669L233.318 341.927Z" fill="#CDD6D9"/>
</g>
<g style="mix-blend-mode:multiply" opacity="0.34">
<path d="M243.459 351.561C243.459 351.561 265.211 344.046 263.58 331.345C262.597 323.677 251.198 325.071 249.244 332.223C247.29 339.375 240.301 352.627 240.301 352.627L243.459 351.561Z" fill="#CDD6D9"/>
</g>
<g style="mix-blend-mode:multiply" opacity="0.34">
<path d="M241.931 317.082C241.931 317.082 264.908 316.685 267.192 304.109C268.568 296.525 255.263 294.426 251.211 300.624C247.16 306.821 238.609 317.152 238.609 317.152L241.931 317.082Z" fill="#CDD6D9"/>
</g>
<g style="mix-blend-mode:multiply" opacity="0.34">
<path d="M287.568 234.274C287.334 234.839 312.052 240.778 317.053 232.043C322.054 223.309 313.166 212.922 297.653 223.072C297.653 223.072 290.045 228.335 287.568 234.274Z" fill="#CDD6D9"/>
</g>
<g style="mix-blend-mode:multiply" opacity="0.34">
<path d="M261.881 256.532C261.881 256.532 276.39 264.967 287.699 257.229C299.009 249.491 281.604 236.748 263.904 254.064L261.881 256.532Z" fill="#CDD6D9"/>
</g>
<g style="mix-blend-mode:multiply" opacity="0.34">
<path d="M246.499 285.371C246.499 285.371 261.008 293.799 272.324 286.068C283.64 278.337 266.229 265.594 248.522 282.903L246.499 285.371Z" fill="#CDD6D9"/>
</g>
<g style="mix-blend-mode:multiply" opacity="0.34">
<path d="M253.2 267.895C253.2 267.895 240.383 257.006 243.624 243.58C246.864 230.154 264.695 242.311 254.775 265.12L253.2 267.895Z" fill="#CDD6D9"/>
</g>
<g style="mix-blend-mode:multiply" opacity="0.34">
<path d="M277.827 238.868C277.827 238.868 265.445 216.365 274.876 206.362C284.053 196.603 296.8 218.359 280.194 236.756L277.827 238.868Z" fill="#CDD6D9"/>
</g>
<g style="mix-blend-mode:multiply" opacity="0.34">
<path d="M234.742 302.143C234.742 302.143 217.166 287.623 221.981 275.8C224.884 268.669 236.49 271.485 236.593 278.902C236.696 286.319 239.345 306.64 239.345 306.64L234.742 302.143Z" fill="#CDD6D9"/>
</g>
<g opacity="0.9">
<g style="mix-blend-mode:multiply" opacity="0.34">
<path d="M202.376 292.781C202.376 292.781 223.66 273.165 215.549 259.425C210.651 251.137 198.289 258.47 199.521 267.672C200.752 276.874 199.294 295.619 199.294 295.619L202.376 292.781Z" fill="#CDD6D9"/>
</g>
<g style="mix-blend-mode:multiply">
<path d="M187.798 247.54C187.798 247.54 205.554 227.749 196.968 215.919C191.788 208.788 181.146 216.575 183.038 224.863C184.93 233.152 185.232 250.398 185.232 250.398L187.798 247.54Z" fill="#D3E6EA"/>
</g>
<g style="mix-blend-mode:multiply" opacity="0.34">
<path d="M193.701 306.368C193.701 306.368 167.401 304.081 165.764 289.491C164.774 280.694 177.817 279.035 181.979 286.459C186.141 293.883 197.498 306.675 197.498 306.675L193.701 306.368Z" fill="#CDD6D9"/>
</g>
<g style="mix-blend-mode:multiply" opacity="0.34">
<path d="M186.003 267.512C186.003 267.512 160.281 273.507 154.31 260.129C150.705 252.064 164.959 245.999 171.164 251.764C177.369 257.529 189.738 266.654 189.738 266.654L186.003 267.512Z" fill="#CDD6D9"/>
</g>
<g style="mix-blend-mode:multiply" opacity="0.34">
<path d="M112.546 188.014C112.959 188.572 91.0003 202.654 83.0479 194.288C75.0955 185.923 85.7239 173.78 98.2717 178.36C98.2717 178.374 108.157 182.082 112.546 188.014Z" fill="#CDD6D9"/>
</g>
<g style="mix-blend-mode:multiply" opacity="0.34">
<path d="M147.293 205.644C147.293 205.644 133.425 219.105 118.71 213.675C103.995 208.244 119.914 189.144 144.37 203.483L147.293 205.644Z" fill="#CDD6D9"/>
</g>
<g style="mix-blend-mode:multiply" opacity="0.34">
<path d="M172.251 233.451C172.251 233.451 158.383 246.912 143.668 241.475C128.953 236.038 144.872 216.951 169.328 231.29L172.251 233.451Z" fill="#CDD6D9"/>
</g>
<g style="mix-blend-mode:multiply" opacity="0.34">
<path d="M160.013 215.85C160.013 215.85 171.329 200.13 164.058 186.07C156.787 172.009 140.228 190.559 157.509 213.201L160.013 215.85Z" fill="#CDD6D9"/>
</g>
<g style="mix-blend-mode:multiply" opacity="0.34">
<path d="M124.647 190.405C124.647 190.405 130.405 171.842 119.075 160.883C107.744 149.925 97.914 172.88 121.441 188.705L124.647 190.405Z" fill="#CDD6D9"/>
</g>
</g>
<path d="M287.383 150.009C287.527 149.813 292.611 150.009 292.611 150.009C292.611 150.009 286.743 156.045 284.438 158.046C279.43 162.403 275.564 159.608 275.564 159.608C275.564 159.608 269.999 156.568 265.754 149.318C263.119 144.822 261.221 144.153 261.221 144.153C261.221 144.153 258.531 145.714 256.894 144.251C255.256 142.787 255.353 140.904 255.855 140.368C256.357 139.831 260.56 141.511 260.505 139.42C260.45 137.328 260.106 135.627 260.994 136.206C261.881 136.785 261.881 140.814 261.881 140.814C261.881 140.814 275.089 151.549 275.543 151.849C280.593 155.132 287.383 150.009 287.383 150.009Z" fill="white" stroke="#002A4E" stroke-width="1.49" stroke-linecap="round" stroke-linejoin="round"/>
<path d="M193.708 206.822C176.356 206.822 159.394 201.608 144.967 191.84C130.54 182.071 119.295 168.187 112.655 151.942C106.014 135.698 104.277 117.823 107.662 100.577C111.047 83.3323 119.403 67.4917 131.672 55.0587C143.942 42.6257 159.574 34.1587 176.592 30.7284C193.61 27.2981 211.25 29.0587 227.281 35.7874C243.312 42.5161 257.014 53.9107 266.654 68.5304C276.294 83.1501 281.439 100.338 281.439 117.921C281.413 141.491 272.162 164.089 255.715 180.755C239.268 197.422 216.968 206.796 193.708 206.822ZM193.708 29.4454C176.439 29.4454 159.558 34.6344 145.2 44.3563C130.842 54.0781 119.651 67.8961 113.042 84.0629C106.434 100.23 104.705 118.019 108.074 135.182C111.443 152.345 119.758 168.109 131.969 180.483C144.18 192.856 159.737 201.283 176.674 204.697C193.611 208.111 211.166 206.359 227.12 199.662C243.075 192.966 256.711 181.625 266.305 167.076C275.899 152.526 281.019 135.42 281.019 117.921C280.994 94.4639 271.787 71.9747 255.418 55.3879C239.05 38.8011 216.856 29.4712 193.708 29.4454Z" fill="white" stroke="#002A4E" stroke-width="1.49" stroke-linecap="round" stroke-linejoin="round"/>
<path opacity="0.54" d="M279.244 122.996C279.241 107.391 275.083 92.0766 267.21 78.6655C259.337 65.2543 248.041 54.2432 234.51 46.7923C220.979 39.3414 205.716 35.7266 190.328 36.3288C174.94 36.931 159.998 41.7278 147.075 50.2139C134.151 58.6999 123.726 70.5611 116.897 84.5476C110.069 98.5341 107.089 114.128 108.273 129.687C109.457 145.245 114.76 160.192 123.623 172.953C132.487 185.713 144.583 195.815 158.637 202.193H158.534L158.885 202.305H158.933C162.905 204.058 166.101 207.232 167.91 211.221C172.678 221.942 171.845 234.434 172.1 235.201H219.23C219.23 215.271 224.203 204.32 226.646 203.086C242.23 196.48 255.538 185.352 264.897 171.101C274.256 156.851 279.248 140.114 279.244 122.996Z" fill="white" stroke="#002A4E" stroke-width="1.49" stroke-linecap="round" stroke-linejoin="round"/>
<path d="M173.613 228.307H218.06C218.462 228.307 218.847 228.468 219.13 228.756C219.414 229.043 219.574 229.434 219.574 229.84V256.783C219.574 258.617 218.855 260.376 217.575 261.673C216.295 262.97 214.559 263.698 212.749 263.698H178.924C177.114 263.698 175.379 262.97 174.099 261.673C172.819 260.376 172.1 258.617 172.1 256.783V229.84C172.1 229.434 172.259 229.043 172.543 228.756C172.827 228.468 173.212 228.307 173.613 228.307Z" fill="white" stroke="#002A4E" stroke-width="1.49" stroke-linecap="round" stroke-linejoin="round"/>
<path d="M185.797 228.648L171.887 134.631C162.455 133.355 153.017 130.574 148.566 124.802C144.961 120.124 143.751 113.773 145.539 108.622C147.101 104.063 150.843 100.835 156.078 99.5596C157.416 99.1737 158.819 99.0773 160.196 99.2767C161.574 99.4761 162.894 99.9667 164.072 100.717C169.004 103.923 170.415 111.048 170.47 111.348V111.389L173.641 132.783C181.581 133.631 189.578 133.804 197.546 133.299H197.588C197.746 133.299 204.742 133.013 212.977 131.863C213.19 129.688 213.355 128.064 213.465 127.137C213.685 125.283 213.83 123.31 213.981 121.218C214.359 115.976 214.758 110.567 216.402 106.321C218.384 101.226 221.816 98.751 226.9 98.751C229.789 98.7589 232.618 99.59 235.063 101.149C237.508 102.709 239.471 104.933 240.727 107.569C243.52 113.09 243.293 119.511 240.156 123.923C236.366 129.263 224.898 132.135 214.827 133.683C212.605 156.805 206.469 227.791 206.4 228.586L204.398 228.404C204.467 227.603 210.507 157.663 212.77 133.982C204.955 135.056 198.413 135.328 197.684 135.377C189.775 135.914 181.835 135.769 173.95 134.944L187.785 228.356L185.797 228.648ZM158.899 101.226C158.108 101.233 157.321 101.334 156.553 101.525C150.726 102.968 148.38 106.545 147.438 109.298C145.897 113.808 146.956 119.399 150.148 123.54C154.124 128.691 162.751 131.264 171.57 132.498L168.488 111.71C168.413 111.334 167.078 105.074 162.985 102.418C161.767 101.625 160.346 101.21 158.899 101.226ZM226.907 100.773C217.496 100.773 216.733 111.229 215.997 121.344C215.845 123.435 215.694 125.457 215.474 127.353C215.371 128.21 215.226 129.639 215.04 131.536C224.602 130.065 235.183 127.409 238.526 122.703C241.23 118.904 241.395 113.32 238.946 108.475C237.853 106.177 236.145 104.236 234.017 102.874C231.888 101.512 229.424 100.784 226.907 100.773Z" fill="#FF6D31"/>
<path d="M277.635 392.794C277.149 392.768 276.69 392.565 276.342 392.221C275.993 391.877 275.781 391.417 275.743 390.926L256.261 189.464C256.202 188.922 256.355 188.378 256.686 187.948C257.018 187.518 257.502 187.237 258.036 187.164C258.299 187.138 258.565 187.166 258.818 187.246C259.07 187.325 259.305 187.455 259.507 187.628C259.71 187.801 259.876 188.013 259.997 188.251C260.117 188.49 260.19 188.751 260.21 189.018L279.692 390.48C279.75 391.022 279.598 391.566 279.266 391.996C278.934 392.425 278.45 392.707 277.917 392.78C277.823 392.792 277.729 392.796 277.635 392.794Z" fill="#002A4E"/>
<path d="M343.517 390.661C342.582 390.661 341.275 389.964 341.075 388.925L301.258 184.78C301.138 184.235 301.231 183.665 301.517 183.188C301.803 182.711 302.26 182.365 302.792 182.222C303.056 182.17 303.327 182.172 303.589 182.229C303.851 182.285 304.1 182.395 304.32 182.551C304.539 182.707 304.726 182.907 304.867 183.138C305.009 183.368 305.104 183.626 305.145 183.895L345.512 390.11C345.739 391.274 343.29 389.573 343.517 390.661Z" fill="#002A4E"/>
<path d="M319.13 273.332H266.078C265.807 273.369 265.532 273.347 265.271 273.268C265.01 273.188 264.768 273.053 264.563 272.871C264.358 272.689 264.193 272.465 264.08 272.213C263.968 271.961 263.909 271.688 263.909 271.412C263.909 271.135 263.968 270.862 264.08 270.611C264.193 270.359 264.358 270.135 264.563 269.953C264.768 269.771 265.01 269.636 265.271 269.556C265.532 269.476 265.807 269.454 266.078 269.491H319.13C319.401 269.454 319.676 269.476 319.937 269.556C320.198 269.636 320.439 269.771 320.645 269.953C320.85 270.135 321.015 270.359 321.128 270.611C321.24 270.862 321.299 271.135 321.299 271.412C321.299 271.688 321.24 271.961 321.128 272.213C321.015 272.465 320.85 272.689 320.645 272.871C320.439 273.053 320.198 273.188 319.937 273.268C319.676 273.347 319.401 273.369 319.13 273.332Z" fill="#002A4E"/>
<path d="M308.282 243.81H262.5C262.017 243.781 261.564 243.565 261.232 243.209C260.901 242.852 260.716 242.38 260.716 241.89C260.716 241.399 260.901 240.928 261.232 240.571C261.564 240.214 262.017 239.999 262.5 239.969H308.282C308.765 239.999 309.218 240.214 309.55 240.571C309.882 240.928 310.066 241.399 310.066 241.89C310.066 242.38 309.882 242.852 309.55 243.209C309.218 243.565 308.765 243.781 308.282 243.81Z" fill="#002A4E"/>
<path d="M322.99 301.628H269.07C268.566 301.628 268.084 301.425 267.727 301.064C267.371 300.703 267.171 300.214 267.171 299.704C267.171 299.193 267.371 298.704 267.727 298.343C268.084 297.982 268.566 297.78 269.07 297.78H322.99C323.493 297.78 323.976 297.982 324.332 298.343C324.688 298.704 324.888 299.193 324.888 299.704C324.888 300.214 324.688 300.703 324.332 301.064C323.976 301.425 323.493 301.628 322.99 301.628Z" fill="#002A4E"/>
<path d="M272.062 327.337C271.804 327.352 271.545 327.314 271.302 327.225C271.058 327.136 270.835 326.997 270.647 326.817C270.458 326.637 270.308 326.42 270.205 326.179C270.103 325.938 270.05 325.678 270.05 325.416C270.05 325.154 270.103 324.894 270.205 324.653C270.308 324.412 270.458 324.195 270.647 324.015C270.835 323.835 271.058 323.696 271.302 323.607C271.545 323.518 271.804 323.48 272.062 323.495H327.578C328.082 323.495 328.565 323.698 328.921 324.059C329.277 324.42 329.477 324.909 329.477 325.419C329.477 325.93 329.277 326.419 328.921 326.78C328.565 327.141 328.082 327.343 327.578 327.343L272.062 327.337Z" fill="#002A4E"/>
<path d="M333.618 357.179H274.897C274.631 357.207 274.363 357.179 274.109 357.095C273.855 357.011 273.622 356.874 273.423 356.693C273.225 356.512 273.066 356.291 272.958 356.044C272.849 355.797 272.793 355.529 272.793 355.259C272.793 354.988 272.849 354.721 272.958 354.474C273.066 354.227 273.225 354.005 273.423 353.824C273.622 353.643 273.855 353.506 274.109 353.423C274.363 353.339 274.631 353.31 274.897 353.338H333.618C333.884 353.31 334.152 353.339 334.406 353.423C334.66 353.506 334.893 353.643 335.092 353.824C335.29 354.005 335.449 354.227 335.557 354.474C335.666 354.721 335.722 354.988 335.722 355.259C335.722 355.529 335.666 355.797 335.557 356.044C335.449 356.291 335.29 356.512 335.092 356.693C334.893 356.874 334.66 357.011 334.406 357.095C334.152 357.179 333.884 357.207 333.618 357.179Z" fill="#002A4E"/>
<path d="M283.764 149.423C282.848 149.323 282.007 148.86 281.425 148.136C280.843 147.412 280.566 146.484 280.655 145.554L281.253 139.65C281.352 138.72 281.81 137.868 282.526 137.279C283.243 136.69 284.16 136.412 285.078 136.506C285.995 136.604 286.837 137.066 287.419 137.791C288.002 138.516 288.278 139.444 288.187 140.375L287.582 146.272C287.485 147.202 287.029 148.054 286.314 148.645C285.599 149.235 284.682 149.515 283.764 149.423Z" fill="white" stroke="#002A4E" stroke-width="1.49" stroke-linecap="round" stroke-linejoin="round"/>
<path d="M317.603 269.54L305.908 274.287C305.503 274.441 304.278 274.287 304.065 274.001C303.945 273.852 303.858 273.678 303.808 273.492C303.758 273.306 303.746 273.112 303.774 272.921C303.802 272.731 303.868 272.548 303.969 272.385C304.07 272.222 304.203 272.081 304.361 271.973C305.558 270.906 307.222 269.185 307.738 268.641C307.852 268.525 307.995 268.443 308.151 268.404L315.512 266.312C315.682 266.259 315.863 266.256 316.035 266.303C316.206 266.35 316.361 266.445 316.482 266.577L318.009 268.487C318.068 268.58 318.105 268.686 318.115 268.795C318.126 268.905 318.111 269.016 318.072 269.119C318.032 269.222 317.969 269.313 317.887 269.387C317.806 269.46 317.709 269.512 317.603 269.54Z" fill="white" stroke="#002A4E" stroke-width="1.49" stroke-linecap="round" stroke-linejoin="round"/>
<path d="M278.323 272.851L265.754 272.907C265.503 272.921 265.257 272.834 265.068 272.666C264.879 272.498 264.762 272.262 264.743 272.008C264.737 271.631 264.85 271.263 265.063 270.955C265.277 270.647 265.582 270.415 265.933 270.293C267.343 269.763 269.373 268.899 270.012 268.641C270.149 268.582 270.298 268.558 270.446 268.571L277.408 269.066C277.6 269.074 277.786 269.139 277.943 269.251C278.101 269.364 278.223 269.52 278.295 269.7L279.072 271.931C279.112 272.044 279.121 272.166 279.1 272.284C279.08 272.402 279.029 272.513 278.954 272.606C278.878 272.698 278.781 272.769 278.67 272.812C278.559 272.855 278.44 272.869 278.323 272.851Z" fill="white" stroke="#002A4E" stroke-width="1.49" stroke-linecap="round" stroke-linejoin="round"/>
<path d="M281.769 136.631C282.473 135.335 283.52 134.263 284.793 133.536C286.065 132.809 287.512 132.457 288.972 132.518C294.31 132.518 296.229 138.032 296.298 141.636C296.367 145.24 299.229 146.718 299.979 147.513C300.57 148.14 299.414 149.827 299.889 150.831C300.236 151.424 300.772 151.88 301.409 152.121C302.387 152.635 303.251 153.347 303.948 154.212C305.675 156.345 308.11 160.312 305.399 163.358C301.499 167.743 298.004 167.882 298.83 170.078C299.655 172.274 301.155 172.866 298.623 174.958C296.092 177.049 291.744 178.06 291.744 178.06L292.907 169.235L293.684 165.205L282.677 164.641C282.677 164.641 279.169 159.88 281.769 158.611C282.48 158.31 283.065 157.767 283.424 157.077C283.783 156.386 283.894 155.59 283.737 154.826L288.022 143.024C288.022 143.024 280.324 140.117 281.769 136.631Z" fill="#FF6D31" stroke="#002A4E" stroke-width="1.49" stroke-linecap="round" stroke-linejoin="round"/>
<path d="M284.879 250.76C284.879 250.76 281.597 260.966 279.513 264.521C277.428 268.076 278.316 269.652 278.316 269.652C278.316 269.652 271.209 271.45 269.951 270.948C267.13 269.826 270.116 268.599 270.116 268.599C271.058 268.392 271.946 267.985 272.721 267.403C273.495 266.821 274.139 266.079 274.608 265.225C276.066 262.395 275.874 249.234 275.874 249.234L284.879 250.76Z" fill="white" stroke="#002A4E" stroke-width="1.49" stroke-linecap="round" stroke-linejoin="round"/>
<path d="M312.554 245.323C312.554 245.323 314.191 256.581 313.992 260.959C313.792 265.337 315.925 266.403 315.925 266.403C315.925 266.403 309.781 271.45 308.357 271.325C306.424 271.15 307.731 268.648 307.731 268.648C307.731 268.648 310.407 265.859 310.07 264.04C309.472 260.722 303.012 245.323 303.012 245.323H312.554Z" fill="white" stroke="#002A4E" stroke-width="1.49" stroke-linecap="round" stroke-linejoin="round"/>
<path d="M278.942 187.854L273.239 222.514C272.746 225.575 273.02 228.713 274.037 231.639C275.729 236.714 276.149 248.313 275.626 250.126C275.241 251.443 277.139 251.757 277.139 251.757L284.521 252.845C285.503 251.642 286.108 250.17 286.26 248.616C286.412 247.063 286.104 245.499 285.374 244.124C285.161 243.274 285.052 242.401 285.051 241.524C285.119 240.541 286.523 236.853 283.97 227.847C282.56 222.869 290.636 213.87 290.636 213.87C290.636 213.87 298.995 205.505 297.516 198.743C296.037 191.981 278.942 187.854 278.942 187.854Z" fill="#D0D8DB" stroke="#012A4E" stroke-width="1.49" stroke-linecap="round" stroke-linejoin="round"/>
<path d="M279.994 186.976L290.63 227.094C290.63 227.094 291.091 230.963 294.909 234.622C298.727 238.282 303.308 245.776 303.982 250.23C304.106 251.081 304.257 251.513 304.842 251.75C305.233 251.905 305.653 251.97 306.072 251.94C306.491 251.91 306.898 251.785 307.264 251.576L313.565 248.153C313.565 248.153 314.432 240.387 311.721 241.084L310.346 237.209C310.002 236.247 306.012 228.495 302.372 224.933C298.733 221.371 300.756 212.078 300.756 212.078C300.756 212.078 305.62 192.657 302.379 187.268C298.768 181.246 279.994 186.976 279.994 186.976Z" fill="#D0D8DB" stroke="#012A4E" stroke-width="1.49" stroke-linecap="round" stroke-linejoin="round"/>
<path d="M277.353 189.569H303.157C302.366 186.61 300.819 183.914 298.671 181.755C296.884 179.959 295.522 177.775 294.688 175.369C293.854 172.962 293.57 170.395 293.856 167.861C294.406 163.783 296.869 160.395 294.221 155.969C291.572 151.542 288.641 153.278 286.358 155.969L277.325 166.648C277.325 166.648 277.016 171.779 280.228 175.153C283.441 178.527 277.311 189.046 277.311 189.046L277.353 189.569Z" fill="white" stroke="#002A4E" stroke-width="1.49" stroke-linecap="round" stroke-linejoin="round"/>
<path d="M286.894 156.986C287.052 156.77 290.967 163.107 290.967 163.107C290.967 163.107 286.715 166.892 283.998 168.921C277.807 173.557 274.202 170.636 274.202 170.636C274.202 170.636 268.079 167.22 263.401 159.085C260.505 154.059 258.442 153.285 258.442 153.285C258.442 153.285 255.483 155.035 253.681 153.396C251.879 151.758 251.975 149.639 252.532 149.033C253.089 148.426 257.712 150.336 257.657 147.987C257.602 145.638 257.217 143.721 258.194 144.369C259.171 145.017 259.191 149.535 259.191 149.535C259.191 149.535 273.741 161.594 274.236 161.922C279.767 165.61 286.894 156.986 286.894 156.986Z" fill="white" stroke="#002A4E" stroke-width="1.49" stroke-linecap="round" stroke-linejoin="round"/>
<path d="M143.042 342.526L144.088 348.57L148.133 347.936L148.848 346.13L147.534 341.258L143.042 342.526Z" fill="white" stroke="#002A4E" stroke-width="1.49" stroke-linecap="round" stroke-linejoin="round"/>
<path d="M77.2349 339.117L75.1711 343.774L76.8841 345.308C76.8841 345.308 80.3237 345.308 80.1861 345.175C80.0485 345.043 81.6101 341.118 81.6101 341.118L77.2349 339.117Z" fill="white" stroke="#002A4E" stroke-width="1.49" stroke-linecap="round" stroke-linejoin="round"/>
<path d="M148.064 341.892C148.064 341.892 145.704 344.597 143.042 343.642C140.38 342.687 130.804 317.41 129.545 312.795C128.286 308.18 111.349 287.044 111.349 287.044L126.036 262.646C126.036 262.646 137.394 288.655 142.547 307.574C145.661 318.881 147.507 330.507 148.05 342.233L148.064 341.892Z" fill="#D0D8DB" stroke="#012A4E" stroke-width="1.49" stroke-linecap="round" stroke-linejoin="round"/>
<path d="M125.397 254.03C125.397 254.03 102.647 255.298 98.884 254.664C95.121 254.03 94.3299 272.468 92.7614 286.298C91.6904 294.937 89.0304 303.296 84.9191 310.941C84.9191 310.941 78.3287 328.591 77.3519 338.922C77.8763 339.677 78.5864 340.281 79.4118 340.672C80.2372 341.063 81.1491 341.229 82.0573 341.153C85.3524 340.993 99.9434 313.806 99.9434 313.806C99.9434 313.806 106.066 302.834 109.203 295.207C112.34 287.581 119.873 274.699 123.01 270.112C126.146 265.525 126.772 262.165 126.772 262.165C126.772 262.165 125.08 254.664 125.397 254.03Z" fill="#D0D8DB" stroke="#012A4E" stroke-width="1.49" stroke-linecap="round" stroke-linejoin="round"/>
<path d="M146.633 189.081C146.64 188.995 146.64 188.909 146.633 188.823V188.628C146.633 187.833 145.945 187.638 145.422 187.645C141.253 187.736 141.68 192.113 140.504 194.03L140.407 194.205L129.703 215.815C129.38 216.742 128.327 217.293 127.811 217.697L124.86 217.418C124.362 217.484 123.904 217.732 123.574 218.115C120.953 221.245 110.29 231.89 111.329 233.87C111.448 234.086 111.529 234.322 111.569 234.567L111.638 235.006C111.706 235.426 111.898 235.816 112.19 236.122C112.482 236.428 112.859 236.637 113.271 236.721C113.683 236.804 114.111 236.758 114.496 236.589C114.882 236.419 115.207 236.134 115.429 235.773C116.199 234.504 116.935 233.04 117.582 232.043C117.753 231.777 117.982 231.554 118.252 231.391C118.521 231.228 118.824 231.129 119.137 231.102L133.143 230.405C133.769 230.356 135.151 230.147 135.495 229.61C140.311 222.228 141.928 214.03 142.244 212.761C142.244 212.685 142.705 210.775 142.712 210.67L144.184 194.72C144.349 192.769 144.755 192.866 146.007 190.956C146.34 190.381 146.553 189.743 146.633 189.081Z" fill="white" stroke="#002A4E" stroke-width="1.49" stroke-linecap="round" stroke-linejoin="round"/>
<path d="M91.1998 220.137C91.5644 218.826 93.7452 212.308 101.794 208.286C101.944 208.215 102.112 208.196 102.273 208.231C102.435 208.266 102.581 208.354 102.688 208.481L109.306 215.452C109.898 216.073 110.785 215.529 110.785 214.539V211.277C110.785 210.482 111.384 209.917 111.968 210.161L117.857 212.552C117.915 212.573 117.968 212.604 118.015 212.643C118.524 212.998 123.828 212.998 128.534 216.498C128.981 216.832 128.375 219.363 128.534 220.158L127.433 229.694C126.695 230.281 125.874 230.751 124.998 231.088C124.415 231.346 123.92 231.772 123.572 232.312C123.225 232.852 123.042 233.483 123.044 234.127C123.044 234.441 123.25 235.654 123.195 235.856L125.947 256.651C125.837 257.062 116.853 258.624 116.522 258.686L105.034 260.903C104.847 260.928 104.657 260.89 104.494 260.794C104.331 260.698 104.204 260.55 104.133 260.373L91.9359 235.466C91.8514 235.29 91.8045 235.097 91.7983 234.901L91.1861 220.59C91.1662 220.439 91.1709 220.286 91.1998 220.137Z" fill="white" stroke="#002A4E" stroke-width="1.49" stroke-linecap="round" stroke-linejoin="round"/>
<path d="M113.213 266.034C111.108 264.639 95.9396 261.656 89.0604 252.907C86.3087 249.422 85.435 242.2 85.5795 236.33C86.1642 212.197 102.661 208.795 102.661 208.795C103.562 208.53 103.156 205.588 103.314 205.051C103.314 204.982 103.005 204.522 103.018 204.452L104.532 201.252C104.571 201.071 104.631 200.896 104.711 200.73L106.499 196.958C106.686 196.563 106.987 196.235 107.361 196.016C107.736 195.797 108.166 195.698 108.597 195.731L115.642 196.275C116.198 196.32 116.716 196.582 117.086 197.006C117.455 197.43 117.648 197.982 117.623 198.548L117.369 204.257C117.356 204.568 117.277 204.873 117.138 205.15C116.999 205.428 116.803 205.672 116.564 205.867L110.964 210.391C110.407 210.837 110.909 211.27 110.964 211.988V215.473C110.964 217.502 110.104 217.502 109.815 217.265L100.872 226.919L100.734 227.073C89.9065 240.931 108.797 258.101 114.328 261.928C114.328 261.928 117.974 264.932 118.648 265.755C118.992 266.173 121.352 269.449 120.024 272.726C118.696 276.002 115.979 271.332 115.979 269.582C115.979 267.832 113.213 266.034 113.213 266.034Z" fill="white" stroke="#002A4E" stroke-width="1.49" stroke-linecap="round" stroke-linejoin="round"/>
<path d="M113.406 197.362L116.522 197.495C117.492 197.537 119.068 196.888 119.549 196.031C120.547 194.281 120.925 189.973 115.828 189.36C108.384 188.468 112.388 194.177 105.908 193.542C99.4274 192.908 103.954 197.369 103.156 199.949C102.358 202.528 100.404 203.525 102.028 204.863C103.651 206.202 106.94 204.752 105.798 202.716C104.284 200.046 106.713 197.948 108.088 199.231C109.464 200.513 107.93 203.567 107.93 203.567C107.93 203.567 106.389 206.494 107.07 207.687C108.001 209.014 109.024 210.272 110.132 211.451C110.379 211.726 110.682 211.945 111.019 212.092C112.608 212.789 117.286 214.588 116.921 211.66C116.705 210.174 116.852 208.656 117.348 207.24C117.574 206.626 117.565 205.948 117.321 205.34C117.078 204.732 116.619 204.238 116.034 203.957C114.978 203.506 113.85 203.255 112.704 203.218C109.113 202.981 110.063 200.339 111.04 198.673C111.279 198.257 111.626 197.915 112.043 197.684C112.46 197.453 112.931 197.342 113.406 197.362Z" fill="#FF6D31" stroke="#002A4E" stroke-width="1.49" stroke-linecap="round" stroke-linejoin="round"/>
<path d="M83.8941 348.089C83.8941 348.089 86.9484 350.18 87.1892 351.275C87.6295 353.366 84.0798 353.61 81.2387 351.589C76.9873 348.57 74.5864 347.775 73.9948 347.294C73.4032 346.813 75.1299 342.24 75.6252 343.161C76.0448 343.955 77.001 346.186 80.4957 344.116C81.3649 345.65 82.5189 346.999 83.8941 348.089Z" fill="white" stroke="#002A4E" stroke-width="1.49" stroke-linecap="round" stroke-linejoin="round"/>
<path d="M152.927 347.775C152.927 347.775 156.532 347.936 157.199 348.849C158.445 350.543 155.762 351.86 152.295 351.589C149.543 351.372 144.727 351.491 143.971 351.282C143.214 351.073 143.379 345.935 143.916 346.834C144.769 348.229 147.747 347.775 148.786 345.831C148.786 345.831 150.912 347.929 152.927 347.775Z" fill="white" stroke="#002A4E" stroke-width="1.49" stroke-linecap="round" stroke-linejoin="round"/>
<path d="M89.9478 217.934C89.8171 218.185 101.34 226.885 101.34 226.885L110.572 217.787L102.083 208.76C102.083 208.76 93.4838 211.137 89.9478 217.934Z" fill="white" stroke="#002A4E" stroke-width="1.49" stroke-linecap="round" stroke-linejoin="round"/>
</g>
<defs>
<filter id="filter0_d_805_3788" x="-3.53076" y="0" width="417.062" height="464" filterUnits="userSpaceOnUse" color-interpolation-filters="sRGB">
<feFlood flood-opacity="0" result="BackgroundImageFix"/>
<feColorMatrix in="SourceAlpha" type="matrix" values="0 0 0 0 0 0 0 0 0 0 0 0 0 0 0 0 0 0 127 0" result="hardAlpha"/>
<feOffset dy="4"/>
<feGaussianBlur stdDeviation="2"/>
<feComposite in2="hardAlpha" operator="out"/>
<feColorMatrix type="matrix" values="0 0 0 0 0 0 0 0 0 0 0 0 0 0 0 0 0 0 0.25 0"/>
<feBlend mode="normal" in2="BackgroundImageFix" result="effect1_dropShadow_805_3788"/>
<feBlend mode="normal" in="SourceGraphic" in2="effect1_dropShadow_805_3788" result="shape"/>
</filter>
</defs>
</svg>
